Coordinates
version=1
nRows=19
nColumns=24
inDegrees=yes

Units are S.I. units (second, meters, Newtons, ...)
Angles are in degrees.

endheader
time	pelvis_tilt	pelvis_list	pelvis_rotation	pelvis_tx	pelvis_ty	pelvis_tz	hip_flexion_r	hip_adduction_r	hip_rotation_r	knee_angle_r	ankle_angle_r	subtalar_angle_r	mtp_angle_r	hip_flexion_l	hip_adduction_l	hip_rotation_l	knee_angle_l	ankle_angle_l	subtalar_angle_l	mtp_angle_l	lumbar_extension	lumbar_bending	lumbar_rotation
      1.26616667	      0.63469654	     -4.91616925	     -2.04058495	      0.04040161	      1.04010403	      0.31207926	    -20.55898209	     10.01211785	     -2.13888409	     -8.69798164	      3.87511653	     -4.12478406	     -1.37814533	     23.36683586	     -1.37164554	     -9.86210110	     -1.01874111	     15.28307103	     10.84087184	     -2.32213384	      3.67905944	      8.82344141	      1.96245168
      1.27033333	      0.66096657	     -4.88599038	     -2.09973434	      0.04646358	      1.03998283	      0.31229773	    -20.64190963	      9.92691657	     -2.11602518	     -9.22686446	      3.76086593	     -4.12076128	     -1.35947588	     23.24206181	     -1.35177172	     -9.77692718	     -1.42672457	     15.23267334	     10.78615506	     -2.32291461	      3.75643777	      8.74325980	      1.98144181
      1.27450000	      0.68445399	     -4.74364353	     -2.27710161	      0.05288335	      1.04000461	      0.31251944	    -20.69992167	      9.65361713	     -2.27442999	     -9.78390346	      3.14198955	     -4.00546808	     -1.26332500	     23.03100665	     -1.23743030	     -9.88403343	     -1.70609092	     15.02174472	     10.32905175	     -2.32719531	      3.73058717	      8.55533732	      2.03540226
      1.27866667	      0.75805333	     -4.62907988	     -2.41095785	      0.05921983	      1.04008985	      0.31270593	    -20.80091493	      9.42287684	     -2.36937879	    -10.35159813	      2.60624002	     -3.85397984	     -1.12909870	     22.74744263	     -1.13475257	     -9.78801404	     -1.92238006	     14.67097359	      9.85616795	     -2.32626828	      3.74939060	      8.38277036	      2.12182026
      1.28283333	      0.80070351	     -4.61279689	     -2.46318455	      0.06529957	      1.04008882	      0.31292007	    -20.84048353	      9.34402266	     -2.38041535	    -10.98350051	      2.45458679	     -3.83592514	     -1.09836790	     22.55886239	     -1.12856751	     -9.72136655	     -2.23497793	     14.56894649	      9.75714340	     -2.32447493	      3.83206608	      8.28444884	      2.15090099
      1.28700000	      1.03113715	     -4.41957299	     -2.55352291	      0.07175524	      1.04044723	      0.31278261	    -21.06350890	      8.99097515	     -2.73842433	    -11.59829830	      1.79338390	     -3.45369527	     -0.49992221	     22.01230201	     -0.87719112	     -9.25773986	     -2.23740001	     13.72131018	      8.14744613	     -2.25343383	      3.54378686	      8.06749728	      2.44086983
      1.29116667	      1.03264723	     -4.31481785	     -2.73635781	      0.07819048	      1.04057435	      0.31305689	    -21.02108156	      8.74771062	     -2.82663593	    -12.28701515	      1.25007540	     -3.28235633	     -0.33702372	     21.78065454	     -0.81099382	     -9.46441396	     -2.41991915	     13.38524875	      7.93323903	     -2.22975705	      3.68633128	      7.91516200	      2.46303511
      1.29533333	      1.12854717	     -4.19900744	     -2.85298145	      0.08455571	      1.04082115	      0.31308366	    -21.04830308	      8.48667071	     -3.03882720	    -13.01443054	      0.74109126	     -3.08411739	      0.50283734	     21.39923908	     -0.67522316	     -9.18202219	     -2.45619422	     12.66797131	      6.96379000	     -2.05360350	      3.59295002	      7.75259606	      2.64071134
      1.29950000	      1.13242448	     -4.08952064	     -3.04952627	      0.09102805	      1.04102410	      0.31337345	    -20.96206864	      8.22240130	     -3.14511379	    -13.77327480	      0.12279808	     -2.91172853	      0.67041075	     21.14408381	     -0.60752249	     -9.45963778	     -2.59292313	     12.26218127	      6.81634168	     -2.01937206	      3.73701056	      7.60271830	      2.65214360
      1.30366667	      1.14801426	     -3.97873742	     -3.23021471	      0.09747706	      1.04127140	      0.31361876	    -20.86281129	      7.95482900	     -3.27009558	    -14.56526752	     -0.52868095	     -2.75227178	      0.85353889	     20.86487146	     -0.52857906	     -9.64166269	     -2.68692731	     11.67704805	      6.55299880	     -1.97988611	      3.81362998	      7.42863887	      2.69734424
      1.30783333	      1.18129069	     -3.86286775	     -3.40865581	      0.10392856	      1.04157340	      0.31383598	    -20.75912874	      7.67264395	     -3.40752745	    -15.38795376	     -1.21624274	     -2.58610885	      1.06360852	     20.55524596	     -0.43728040	     -9.77580996	     -2.75322235	     11.03489513	      6.16527531	     -1.92888543	      3.87423084	      7.25304845	      2.76495373
      1.31200000	      1.28921027	     -3.72249574	     -3.54300680	      0.11036977	      1.04197936	      0.31373313	    -20.70543695	      7.33513753	     -3.67847345	    -16.25373242	     -1.83078996	     -2.36926418	      2.24641245	     20.10386897	     -0.25600847	     -9.33537946	     -2.67037238	     10.18783026	      4.75311618	     -1.55453499	      3.84067418	      7.17286579	      3.01178139
      1.31616667	      1.28008059	     -3.60447752	     -3.74145404	      0.11681965	      1.04230211	      0.31403106	    -20.51044778	      7.04036340	     -3.76544320	    -17.13654058	     -2.61053647	     -2.14464812	      2.56562194	     19.84854682	     -0.18243043	     -9.57639335	     -2.76014540	      9.55304538	      4.68743972	     -1.45661428	      3.92302441	      6.93323911	      3.01728577
      1.32033333	      1.28849676	     -3.49287564	     -3.88914742	      0.12320384	      1.04264502	      0.31419961	    -20.29975825	      6.75612178	     -3.97805515	    -18.06943342	     -3.35456298	     -1.98047977	      2.76885817	     19.60412869	     -0.09419846	     -9.85724481	     -2.90159657	      8.99835806	      4.44537510	     -1.39571323	      3.98661210	      6.75207334	      3.04421730
      1.32450000	      1.31234083	     -3.35284182	     -4.07748633	      0.12963577	      1.04306865	      0.31438998	    -20.08985768	      6.41573141	     -4.11493973	    -19.00839650	     -4.23134392	     -1.78439822	      3.02725110	     19.30460242	      0.01891200	     -9.99448721	     -2.96634770	      8.28969189	      4.09998578	     -1.31498273	      4.05914347	      6.55030095	      3.09734206
      1.32866667	      1.34461653	     -3.21363698	     -4.25860750	      0.13601896	      1.04352558	      0.31450821	    -19.86588371	      6.06620761	     -4.22839667	    -19.97438003	     -5.11932758	     -1.63156305	      3.59426686	     18.96923833	      0.14703857	     -9.81727490	     -2.96564685	      7.47137154	      3.40879300	     -1.11739471	      4.12832441	      6.37140809	      3.20208906
      1.33283333	      1.33084949	     -3.09625035	     -4.32265726	      0.14224318	      1.04388061	      0.31430883	    -19.54593834	      5.75888566	     -4.56082372	    -21.00528589	     -5.95876645	     -1.53373489	      5.05855026	     18.74560879	      0.29982770	     -9.57938648	     -3.05688508	      6.59759061	      2.23985346	     -0.57794098	      4.08661078	      6.22495783	      3.31119725
      1.33700000	      1.37237409	     -2.90003197	     -4.47911319	      0.14871476	      1.04438418	      0.31444249	    -19.29358964	      5.34392562	     -4.78136610	    -22.01441713	     -6.83967694	     -1.21262242	      5.28428233	     18.46585311	      0.47300398	     -9.92339360	     -3.22145313	      6.23452360	      2.25350114	     -0.49909682	      4.23259052	      5.98268860	      3.31109745
      1.34116667	      1.37801622	     -2.74628015	     -4.60648755	      0.15498640	      1.04485461	      0.31453472	    -18.97007616	      4.98756607	     -4.95368712	    -23.05061785	     -7.81090637	     -0.99058887	      5.50847501	     18.24598254	      0.60414607	    -10.11486683	     -3.40238999	      5.68946740	      2.15966756	     -0.42416961	      4.28132261	      5.74826250	      3.31991809
